<?xml version="1.0" encoding="utf-8"?>
<!-- Generator: Adobe Illustrator 23.1.1, SVG Export Plug-In . SVG Version: 6.00 Build 0)  -->
<svg version="1.1" id="Layer_1" xmlns="http://www.w3.org/2000/svg" xmlns:xlink="http://www.w3.org/1999/xlink" x="0px" y="0px"
	 viewBox="0 0 255 80" style="enable-background:new 0 0 255 80;" xml:space="preserve">
<g id="assertpy-svg">
	<path id="Path_4" d="M25.2,25h2.1l14.4,34.1h-2.6l-4.8-11.2H18.1l-4.8,11.2h-2.6L25.2,25z M33.7,45.8L26.2,28l-7.6,17.9H33.7z
		 M66.2,30.7C64,28.2,60.8,27,56.8,27c-3.3,0-5.8,0.6-7.3,1.9C48,30.1,47.2,32,47.3,34c0,0.9,0.2,1.9,0.6,2.7c0.4,0.8,1,1.4,1.8,1.8
		c1,0.6,2,1,3.1,1.3c1.2,0.4,2.8,0.7,4.5,1.1c1.8,0.4,3.5,0.8,5,1.3c1.3,0.4,2.6,1,3.8,1.8c1,0.7,1.8,1.5,2.4,2.6
		c0.6,1.2,0.9,2.5,0.8,3.8c0,1.4-0.3,2.7-0.9,3.9c-0.6,1.1-1.5,2.1-2.5,2.8c-1.2,0.8-2.5,1.4-3.8,1.7c-1.6,0.4-3.3,0.6-5,0.6
		c-5,0.1-9.8-1.7-13.5-5.1l1.3-2c1.5,1.5,3.3,2.8,5.3,3.6c2.2,0.9,4.6,1.4,7,1.3c2.4,0.1,4.9-0.4,7-1.6c1.7-1.1,2.6-3,2.5-4.9
		c0-1-0.2-2-0.7-2.9c-0.5-0.8-1.2-1.5-2-2c-1-0.6-2.2-1.1-3.3-1.5c-1.3-0.4-2.9-0.8-4.7-1.2c-1.8-0.4-3.4-0.8-4.8-1.2
		c-1.2-0.4-2.4-0.9-3.5-1.6c-0.9-0.6-1.6-1.4-2.1-2.4c-0.5-1.1-0.8-2.3-0.7-3.5c0-1.4,0.3-2.8,0.9-4.1c0.6-1.2,1.4-2.2,2.5-3
		c1.1-0.9,2.4-1.5,3.8-1.9c1.6-0.4,3.2-0.6,4.9-0.6c2,0,4,0.3,5.9,1c1.8,0.7,3.4,1.7,4.7,3L66.2,30.7z M95.2,30.7
		C93,28.2,89.9,27,85.8,27c-3.3,0-5.8,0.6-7.3,1.9c-1.5,1.3-2.4,3.1-2.3,5.1c0,0.9,0.2,1.9,0.6,2.7c0.4,0.8,1,1.4,1.8,1.8
		c1,0.6,2,1,3.1,1.3c1.2,0.4,2.8,0.7,4.5,1.1c1.8,0.4,3.5,0.8,5,1.3c1.3,0.4,2.6,1,3.8,1.8c1,0.7,1.8,1.5,2.4,2.6
		c0.6,1.2,0.9,2.5,0.8,3.8c0,1.4-0.3,2.7-0.9,3.9c-0.6,1.1-1.5,2.1-2.5,2.8c-1.2,0.8-2.5,1.4-3.8,1.7c-1.6,0.4-3.3,0.6-5,0.6
		c-5,0.1-9.8-1.7-13.5-5.1l1.3-2c1.5,1.5,3.3,2.8,5.3,3.6c2.2,0.9,4.6,1.4,7,1.3c2.4,0.1,4.9-0.4,7-1.6c1.7-1.1,2.6-3,2.5-4.9
		c0-1-0.2-2-0.7-2.9c-0.5-0.8-1.2-1.5-2-2c-1-0.6-2.2-1.1-3.3-1.5c-1.3-0.4-2.9-0.8-4.7-1.2c-1.8-0.4-3.4-0.8-4.8-1.2
		c-1.2-0.4-2.4-0.9-3.5-1.6c-0.9-0.6-1.6-1.4-2.1-2.4c-0.5-1.1-0.8-2.3-0.7-3.5c0-1.4,0.3-2.8,0.9-4.1c0.6-1.2,1.4-2.2,2.5-3
		c1.1-0.9,2.4-1.5,3.8-1.9c1.6-0.4,3.2-0.6,4.9-0.6c2,0,4,0.3,5.9,1c1.8,0.7,3.4,1.7,4.7,3L95.2,30.7z M127.1,56.9v2.2h-22.7V25
		h22.3v2.2h-19.8v13.4h17.3v2.1h-17.3v14.2H127.1z M133.8,59.1V25H148c1.4,0,2.7,0.3,4,0.9c1.2,0.6,2.3,1.4,3.1,2.4
		c0.9,1,1.6,2.2,2.1,3.4c0.5,1.2,0.7,2.5,0.7,3.8c0,1.2-0.2,2.5-0.6,3.6c-0.4,1.1-0.9,2.2-1.6,3.1c-0.7,0.9-1.6,1.7-2.5,2.3
		c-1,0.6-2.1,1-3.3,1.2l8.5,13.3h-2.8l-8.3-12.9h-11v12.9H133.8z M136.2,43.9h12c1,0,2.1-0.2,3-0.7c0.9-0.5,1.7-1.1,2.3-1.9
		c0.6-0.8,1.1-1.7,1.5-2.7c0.3-1,0.5-2,0.5-3.1c0-1.1-0.2-2.1-0.6-3.1c-0.4-1-0.9-1.9-1.6-2.7c-0.7-0.8-1.5-1.4-2.4-1.8
		c-0.9-0.5-1.9-0.7-3-0.7h-11.6V43.9z M188.2,27.2h-12.5v31.9h-2.4V27.2h-12.5V25h27.4L188.2,27.2z"/>
	<path id="Path_3" d="M192.5,25L183,70l9.1-2.2l3.1-14.7c1.7,1.1,3.6,1.8,5.6,1.8c6.1,0,11.3-4.4,13.1-17.3c0.2-1.4,0.3-2.8,0.4-4.2
		c0-6.2-2.9-8.4-9.2-8.4c-1.5,0-2.9,0.4-4.2,1.1l0.2-1.1H192.5z M199.8,50.5c-1.4,0.1-2.8-0.3-3.9-1.1l4.3-20.2
		c1-0.8,2.2-1.2,3.4-1.3c1.9,0,3.4,0.7,3.4,4.3c-0.1,2-0.3,4.1-0.8,6.1C204.3,47.9,202.8,50.5,199.8,50.5z M219.8,25l-4.2,20.4
		c-0.2,1-0.3,2-0.4,3.1c0,4.5,2.8,6.5,7.4,6.5c2.4,0,5.5-2.2,8.2-4.6l-0.9,4.1c-5.7,1.7-10.4,3.4-10.4,9c0,3.9,3.4,6.5,7.1,6.5
		c4,0,9.1-1.6,10.9-10.2l7.3-34.8h-8.7l-4.7,22.1c-1.6,1.3-3.2,2.4-4.6,2.4c-2.3,0-3-0.9-3-2.2c0-0.7,0.1-1.3,0.3-1.9l4.4-20.4
		H219.8z M222.9,62.7c0-3.2,2.9-5,6.7-6.2l-0.7,3.5c-0.7,3.5-2.3,4.7-3.5,4.7C224.1,64.7,223.1,63.8,222.9,62.7z"/>
</g>
</svg>
